<?xml version="1.0" encoding="UTF-8" standalone="no"?>
<!-- Created with Inkscape (http://www.inkscape.org/) -->

<svg
   xmlns:svg="http://www.w3.org/2000/svg"
   xmlns="http://www.w3.org/2000/svg"
   xmlns:xlink="http://www.w3.org/1999/xlink"
   version="1.1"
   width="48"
   height="48"
   id="svg3317">
  <defs
     id="defs3319">
    <radialGradient
       cx="66.917099"
       cy="121.70865"
       r="36.032284"
       fx="66.917099"
       fy="121.70865"
       id="radialGradient5974"
       xlink:href="#linearGradient5968"
       gradientUnits="userSpaceOnUse"
       gradientTransform="matrix(1,0,0,0.1111111,0,108.18546)" />
    <linearGradient
       id="linearGradient5968">
      <stop
         id="stop5970"
         style="stop-color:#000000;stop-opacity:1"
         offset="0" />
      <stop
         id="stop5972"
         style="stop-color:#000000;stop-opacity:0"
         offset="1" />
    </linearGradient>
    <filter
       x="-0.034698177"
       y="-0.31228358"
       width="1.0693964"
       height="1.6245672"
       color-interpolation-filters="sRGB"
       id="filter6028">
      <feGaussianBlur
         id="feGaussianBlur6030"
         stdDeviation="1.0418788" />
    </filter>
    <linearGradient
       x1="64"
       y1="81.5"
       x2="64"
       y2="12.678303"
       id="linearGradient2317"
       xlink:href="#linearGradient10207"
       gradientUnits="userSpaceOnUse"
       gradientTransform="translate(1.5e-6,0)"
       spreadMethod="reflect" />
    <linearGradient
       id="linearGradient10207">
      <stop
         id="stop10209"
         style="stop-color:#b4b4b4;stop-opacity:1"
         offset="0" />
      <stop
         id="stop4937"
         style="stop-color:#d1d1d1;stop-opacity:1"
         offset="0.5" />
      <stop
         id="stop10211"
         style="stop-color:#fafafa;stop-opacity:1"
         offset="1" />
    </linearGradient>
    <radialGradient
       cx="-1.2494017"
       cy="23.725372"
       r="60"
       fx="-1.2494017"
       fy="61.40414"
       id="radialGradient5177"
       xlink:href="#linearGradient4893"
       gradientUnits="userSpaceOnUse"
       gradientTransform="matrix(1.3581356,1.5026073,-1.6333333,1.4762927,-61.051702,-44.648234)" />
    <linearGradient
       id="linearGradient4893">
      <stop
         id="stop4895"
         style="stop-color:#000000;stop-opacity:0"
         offset="0" />
      <stop
         id="stop4909"
         style="stop-color:#000000;stop-opacity:0"
         offset="0.61052197" />
      <stop
         id="stop4905"
         style="stop-color:#000000;stop-opacity:0.37769786"
         offset="0.68472904" />
      <stop
         id="stop4907"
         style="stop-color:#000000;stop-opacity:0"
         offset="0.7499575" />
      <stop
         id="stop4897"
         style="stop-color:#000000;stop-opacity:0"
         offset="1" />
    </linearGradient>
    <mask
       id="mask4921">
      <path
         d="m -83.999999,4 c -3.273853,0.017276 -5.375768,0.1739184 -8.625,0.625 -0.96195,0.153184 -1.75,0.7805494 -1.75,1.75 l -0.59375,9.4375 c -0.08851,0.955194 -0.756643,1.58433 -1.46875,1.8125 -0.02183,0.007 -0.0406,0.02503 -0.0625,0.03125 -4.116841,1.105169 -8.022931,2.722102 -11.625001,4.8125 -0.65155,0.281931 -1.49213,0.264937 -2.1875,-0.3125 l -7.09375,-6.25 c -0.6855,-0.685498 -1.68023,-0.57188 -2.46875,0 -2.61651,1.978592 -4.23532,3.353505 -6.5625,5.65625 -2.30274,2.327183 -3.67766,3.945984 -5.65625,6.5625 -0.57188,0.788521 -0.6855,1.783252 0,2.46875 l 6.25,7.09375 c 0.47372,0.570479 0.7362,1.308846 0.46875,1.84375 l -0.0625,0.125 c -2.24552,3.7996 -3.99486,7.936313 -5.125,12.3125 -0.0118,0.02064 -0.0187,0.04216 -0.0312,0.0625 -0.31721,0.512841 -0.85539,0.931584 -1.59375,1 l -9.4375,0.59375 c -0.96944,0 -1.59681,0.78805 -1.75,1.75 -0.45108,3.249232 -0.60772,5.351147 -0.625,8.625 0.0173,3.273853 0.17392,5.375768 0.625,8.625 0.15319,0.961946 0.78056,1.75 1.75,1.75 l 9.4375,0.59375 c 0.86735,0.08037 1.44344,0.646567 1.71875,1.28125 1.10323,4.143354 2.76625,8.064208 4.875,11.6875 0.37292,0.668507 0.38163,1.614364 -0.25,2.375 l -6.25,7.09375 c -0.6855,0.685496 -0.57188,1.680227 0,2.46875 1.97859,2.61651 3.35351,4.23531 5.65625,6.5625 2.32718,2.30274 3.94598,3.67766 6.5625,5.65625 0.78852,0.57188 1.78325,0.6855 2.46875,0 l 7.09375,-6.25 c 0.76064,-0.63163 1.70649,-0.62292 2.375,-0.25 l 0.0937,-0.0937 c 3.52766,2.01717 7.32819,3.60952 11.343751,4.6875 l 0,0.15625 c 0.736401,0.20901 1.440029,0.85927 1.53125,1.84375 l 0.59375,9.4375 c 0,0.96944 0.78805,1.59681 1.75,1.75 3.249232,0.45108 5.351147,0.60772 8.625,0.625 3.273853,-0.0173 5.375768,-0.17392 8.625,-0.625 0.961946,-0.15319 1.75,-0.78056 1.75,-1.75 l 0.59375,-9.4375 c 0.09122,-0.98448 0.794849,-1.63474 1.53125,-1.84375 l 0,-0.15625 c 4.015557,-1.07798 7.816095,-2.67033 11.34375,-4.6875 l 0.09375,0.0937 c 0.668507,-0.37292 1.614362,-0.38163 2.375,0.25 l 7.09375,6.25 c 0.685503,0.68551 1.680237,0.57189 2.46875,0 2.61651,-1.97859 4.23531,-3.35351 6.5625,-5.65625 2.30274,-2.32719 3.67766,-3.94599 5.65625,-6.5625 0.57189,-0.788513 0.68551,-1.783245 0,-2.46875 l -6.25,-7.09375 c -0.63163,-0.76064 -0.62292,-1.706493 -0.25,-2.375 2.10875,-3.623292 3.77177,-7.544146 4.875,-11.6875 0.27531,-0.634683 0.8514,-1.20088 1.71875,-1.28125 l 9.4375,-0.59375 c 0.96945,0 1.59682,-0.788054 1.75,-1.75 0.45108,-3.249232 0.60772,-5.351147 0.625,-8.625 -0.01728,-3.273853 -0.17392,-5.375768 -0.625,-8.625 -0.15318,-0.96195 -0.78055,-1.75 -1.75,-1.75 l -9.4375,-0.59375 c -0.73836,-0.06842 -1.27654,-0.487159 -1.59375,-1 -0.0056,-0.02192 -0.02559,-0.04059 -0.03125,-0.0625 -1.13014,-4.376187 -3.15121,-8.364911 -5.125,-12.3125 l -0.0625,-0.125 c -0.26745,-0.534904 -0.005,-1.273273 0.46875,-1.84375 l 6.25,-7.09375 c 0.68551,-0.685506 0.57188,-1.680234 0,-2.46875 -1.97859,-2.616516 -3.35351,-4.23532 -5.65625,-6.5625 -2.32718,-2.302747 -3.94598,-3.677659 -6.5625,-5.65625 -0.788516,-0.571884 -1.783244,-0.685505 -2.46875,0 l -7.09375,6.25 c -0.695376,0.577435 -1.535955,0.594432 -2.1875,0.3125 -3.602075,-2.090398 -7.508163,-3.707331 -11.625,-4.8125 -0.0219,-0.0062 -0.04067,-0.02426 -0.0625,-0.03125 -0.712107,-0.22817 -1.380239,-0.857306 -1.46875,-1.8125 l -0.59375,-9.4375 c 0,-0.9694506 -0.788054,-1.596816 -1.75,-1.75 -3.249232,-0.4510816 -5.351147,-0.6077236 -8.625,-0.625 z m 0,44 c 8.831999,-10e-7 16,7.168 16,16 -10e-7,8.832 -7.168001,16 -16,16 -8.832,0 -16,-7.168 -16,-16 10e-7,-8.832001 7.168001,-16 16,-16 z"
         id="path4923"
         style="fill:url(#radialGradient4925);fill-opacity:1;stroke:none" />
    </mask>
    <radialGradient
       cx="-84"
       cy="64"
       r="60"
       fx="-84"
       fy="64"
       id="radialGradient4925"
       xlink:href="#linearGradient4913"
       gradientUnits="userSpaceOnUse" />
    <linearGradient
       id="linearGradient4913">
      <stop
         id="stop4915"
         style="stop-color:#ffffff;stop-opacity:1"
         offset="0" />
      <stop
         id="stop4917"
         style="stop-color:#ffffff;stop-opacity:0"
         offset="1" />
    </linearGradient>
    <radialGradient
       cx="94.818924"
       cy="67.895119"
       r="43.734375"
       fx="94.818924"
       fy="67.895119"
       id="radialGradient5179"
       xlink:href="#linearGradient4993"
       gradientUnits="userSpaceOnUse"
       gradientTransform="matrix(1,0,0,0.5780636,0,-101.84696)" />
    <linearGradient
       id="linearGradient4993">
      <stop
         id="stop4995"
         style="stop-color:#ffffff;stop-opacity:1"
         offset="0" />
      <stop
         id="stop4997"
         style="stop-color:#ffffff;stop-opacity:0"
         offset="1" />
    </linearGradient>
    <clipPath
       id="clipPath5073">
      <path
         d="m 76.90625,-70.062499 c -2.912256,3.972096 -7.607051,6.5625 -12.90625,6.5625 -4.895788,0 -9.283068,-2.188651 -12.21875,-5.65625 -23.139626,-4.28557 -26.617645,14.039708 -31.5,30.75 0.408832,0.434 0.807117,0.86458 1.28125,1.34375 2.32718,2.30274 3.94598,3.67766 6.5625,5.65625 0.78852,0.57188 1.78325,0.6855 2.46875,0 l 7.09375,-6.25 c 0.76064,-0.63163 1.70649,-0.62292 2.375,-0.25 l 0.09375,-0.09375 c 3.52766,2.01717 7.328189,3.60952 11.34375,4.6875 l 0,0.15625 c 0.736402,0.20901 1.440029,0.85927 1.53125,1.84375 l 0.59375,9.4375 c 10e-7,0.96944 0.78805,1.59681 1.75,1.75 3.249233,0.45108 5.351147,0.60772 8.625,0.625 3.273854,-0.01728 5.375768,-0.17392 8.625,-0.625 0.961947,-0.15319 1.75,-0.78056 1.75,-1.75 l 0.59375,-9.4375 c 0.09122,-0.98448 0.794849,-1.63474 1.53125,-1.84375 l 0,-0.15625 c 4.015558,-1.07798 7.816095,-2.67033 11.34375,-4.6875 l 0.09375,0.09375 c 0.668508,-0.37292 1.614362,-0.38163 2.375,0.25 l 7.09375,6.25 c 0.685504,0.68551 1.680237,0.57189 2.46875,0 2.61651,-1.97859 4.23531,-3.35351 6.5625,-5.65625 0.48542,-0.49057 0.8952,-0.93141 1.3125,-1.375 3.92353,-7.086674 -25.609227,-43.434539 -30.84375,-31.625 z"
         id="path5075"
         style="opacity:0.43122678;fill:url(#radialGradient5077);fill-opacity:1;stroke:none" />
    </clipPath>
    <filter
       color-interpolation-filters="sRGB"
       id="filter5054">
      <feGaussianBlur
         id="feGaussianBlur5056"
         stdDeviation="1.2828183" />
    </filter>
    <radialGradient
       cx="94.818924"
       cy="67.895119"
       r="43.734375"
       fx="94.818924"
       fy="67.895119"
       id="radialGradient5181"
       xlink:href="#linearGradient4993"
       gradientUnits="userSpaceOnUse"
       gradientTransform="matrix(1,0,0,0.5780636,0,-101.84696)" />
    <clipPath
       id="clipPath3582">
      <path
         d="m 76.90625,-70.062499 c -2.912256,3.972096 -7.607051,6.5625 -12.90625,6.5625 -4.895788,0 -9.283068,-2.188651 -12.21875,-5.65625 -23.139626,-4.28557 -26.617645,14.039708 -31.5,30.75 0.408832,0.434 0.807117,0.86458 1.28125,1.34375 2.32718,2.30274 3.94598,3.67766 6.5625,5.65625 0.78852,0.57188 1.78325,0.6855 2.46875,0 l 7.09375,-6.25 c 0.76064,-0.63163 1.70649,-0.62292 2.375,-0.25 l 0.09375,-0.09375 c 3.52766,2.01717 7.328189,3.60952 11.34375,4.6875 l 0,0.15625 c 0.736402,0.20901 1.440029,0.85927 1.53125,1.84375 l 0.59375,9.4375 c 10e-7,0.96944 0.78805,1.59681 1.75,1.75 3.249233,0.45108 5.351147,0.60772 8.625,0.625 3.273854,-0.01728 5.375768,-0.17392 8.625,-0.625 0.961947,-0.15319 1.75,-0.78056 1.75,-1.75 l 0.59375,-9.4375 c 0.09122,-0.98448 0.794849,-1.63474 1.53125,-1.84375 l 0,-0.15625 c 4.015558,-1.07798 7.816095,-2.67033 11.34375,-4.6875 l 0.09375,0.09375 c 0.668508,-0.37292 1.614362,-0.38163 2.375,0.25 l 7.09375,6.25 c 0.685504,0.68551 1.680237,0.57189 2.46875,0 2.61651,-1.97859 4.23531,-3.35351 6.5625,-5.65625 0.48542,-0.49057 0.8952,-0.93141 1.3125,-1.375 3.92353,-7.086674 -25.609227,-43.434539 -30.84375,-31.625 z"
         id="path3584"
         style="opacity:0.43122678;fill:url(#radialGradient5077);fill-opacity:1;stroke:none" />
    </clipPath>
    <radialGradient
       cx="-84"
       cy="64"
       r="60"
       fx="-84"
       fy="64"
       id="radialGradient2311"
       xlink:href="#linearGradient4913"
       gradientUnits="userSpaceOnUse"
       gradientTransform="translate(148,0)" />
    <linearGradient
       x1="283.5"
       y1="-52.5"
       x2="282.5"
       y2="128.5"
       id="linearGradient2308"
       xlink:href="#linearGradient5131"
       gradientUnits="userSpaceOnUse"
       gradientTransform="translate(-230.03067,39.46691)" />
    <linearGradient
       id="linearGradient5131">
      <stop
         id="stop5133"
         style="stop-color:#767676;stop-opacity:1"
         offset="0" />
      <stop
         id="stop5135"
         style="stop-color:#767676;stop-opacity:0"
         offset="1" />
    </linearGradient>
    <filter
       color-interpolation-filters="sRGB"
       id="filter5162">
      <feGaussianBlur
         id="feGaussianBlur5164"
         stdDeviation="0.60500001" />
    </filter>
    <linearGradient
       x1="62.936993"
       y1="3.8495977"
       x2="63.020756"
       y2="9.8520975"
       id="linearGradient5219"
       xlink:href="#linearGradient5213"
       gradientUnits="userSpaceOnUse"
       gradientTransform="translate(-0.02961322,-0.4585689)" />
    <linearGradient
       id="linearGradient5213">
      <stop
         id="stop5215"
         style="stop-color:#ffffff;stop-opacity:1"
         offset="0" />
      <stop
         id="stop5217"
         style="stop-color:#ffffff;stop-opacity:0"
         offset="1" />
    </linearGradient>
    <filter
       color-interpolation-filters="sRGB"
       id="filter5257">
      <feGaussianBlur
         id="feGaussianBlur5259"
         stdDeviation="0.022901589" />
    </filter>
    <radialGradient
       cx="54.672985"
       cy="6.8499207"
       r="1.2890996"
       fx="54.045624"
       fy="6.341433"
       id="radialGradient5253"
       xlink:href="#linearGradient5247"
       gradientUnits="userSpaceOnUse"
       gradientTransform="matrix(1,0,0,1.9019608,0,-6.1783597)" />
    <linearGradient
       id="linearGradient5247">
      <stop
         id="stop5249"
         style="stop-color:#ffffff;stop-opacity:1"
         offset="0" />
      <stop
         id="stop5255"
         style="stop-color:#ffffff;stop-opacity:0.79136693"
         offset="0.5" />
      <stop
         id="stop5251"
         style="stop-color:#ffffff;stop-opacity:0"
         offset="1" />
    </linearGradient>
    <radialGradient
       cx="54.672985"
       cy="6.8499207"
       r="1.2890996"
       fx="54.045624"
       fy="6.341433"
       id="radialGradient5263"
       xlink:href="#linearGradient5247"
       gradientUnits="userSpaceOnUse"
       gradientTransform="matrix(1,0,0,1.9019608,0,-6.1783597)" />
    <linearGradient
       id="linearGradient3615">
      <stop
         id="stop3617"
         style="stop-color:#ffffff;stop-opacity:1"
         offset="0" />
      <stop
         id="stop3619"
         style="stop-color:#ffffff;stop-opacity:0.79136693"
         offset="0.5" />
      <stop
         id="stop3621"
         style="stop-color:#ffffff;stop-opacity:0"
         offset="1" />
    </linearGradient>
    <linearGradient
       x1="43.713863"
       y1="11.36219"
       x2="18.252157"
       y2="21.728621"
       id="linearGradient5273"
       xlink:href="#linearGradient5267"
       gradientUnits="userSpaceOnUse" />
    <linearGradient
       id="linearGradient5267">
      <stop
         id="stop5269"
         style="stop-color:#ffffff;stop-opacity:1"
         offset="0" />
      <stop
         id="stop5275"
         style="stop-color:#ffffff;stop-opacity:0.50359714"
         offset="0.5" />
      <stop
         id="stop5271"
         style="stop-color:#ffffff;stop-opacity:1"
         offset="1" />
    </linearGradient>
    <filter
       color-interpolation-filters="sRGB"
       id="filter5309">
      <feGaussianBlur
         id="feGaussianBlur5311"
         stdDeviation="0.093056358" />
    </filter>
    <radialGradient
       cx="54.672985"
       cy="6.8499207"
       r="1.2890996"
       fx="54.045624"
       fy="6.341433"
       id="radialGradient5315"
       xlink:href="#linearGradient5247"
       gradientUnits="userSpaceOnUse"
       gradientTransform="matrix(1,0,0,1.9019608,0,-6.1783597)" />
    <linearGradient
       id="linearGradient3631">
      <stop
         id="stop3633"
         style="stop-color:#ffffff;stop-opacity:1"
         offset="0" />
      <stop
         id="stop3635"
         style="stop-color:#ffffff;stop-opacity:0.79136693"
         offset="0.5" />
      <stop
         id="stop3637"
         style="stop-color:#ffffff;stop-opacity:0"
         offset="1" />
    </linearGradient>
    <linearGradient
       x1="52.721935"
       y1="17.796528"
       x2="38.62756"
       y2="22.658024"
       id="linearGradient5337"
       xlink:href="#linearGradient5267"
       gradientUnits="userSpaceOnUse" />
    <linearGradient
       id="linearGradient3640">
      <stop
         id="stop3642"
         style="stop-color:#ffffff;stop-opacity:1"
         offset="0" />
      <stop
         id="stop3644"
         style="stop-color:#ffffff;stop-opacity:0.50359714"
         offset="0.5" />
      <stop
         id="stop3646"
         style="stop-color:#ffffff;stop-opacity:1"
         offset="1" />
    </linearGradient>
    <radialGradient
       cx="54.672985"
       cy="6.8499207"
       r="1.2890996"
       fx="54.045624"
       fy="6.341433"
       id="radialGradient5339"
       xlink:href="#linearGradient5247"
       gradientUnits="userSpaceOnUse"
       gradientTransform="matrix(1,0,0,1.9019608,0,-6.1783597)" />
    <linearGradient
       id="linearGradient3653">
      <stop
         id="stop3655"
         style="stop-color:#ffffff;stop-opacity:1"
         offset="0" />
      <stop
         id="stop3657"
         style="stop-color:#ffffff;stop-opacity:0.79136693"
         offset="0.5" />
      <stop
         id="stop3659"
         style="stop-color:#ffffff;stop-opacity:0"
         offset="1" />
    </linearGradient>
    <radialGradient
       cx="54.672985"
       cy="6.8499207"
       r="1.2890996"
       fx="54.672985"
       fy="6.8499207"
       id="radialGradient5343"
       xlink:href="#linearGradient3285"
       gradientUnits="userSpaceOnUse"
       gradientTransform="matrix(1,0,0,1.9019608,0,-6.1783597)" />
    <linearGradient
       id="linearGradient3285">
      <stop
         id="stop3287"
         style="stop-color:#474747;stop-opacity:1"
         offset="0" />
      <stop
         id="stop3289"
         style="stop-color:#474747;stop-opacity:0"
         offset="1" />
    </linearGradient>
    <filter
       x="-0.11277929"
       y="-0.066691414"
       width="1.2255586"
       height="1.1333828"
       color-interpolation-filters="sRGB"
       id="filter5505">
      <feGaussianBlur
         id="feGaussianBlur5507"
         stdDeviation="0.13268874" />
    </filter>
    <radialGradient
       cx="54.672985"
       cy="6.8499207"
       r="1.2890996"
       fx="54.672985"
       fy="6.8499207"
       id="radialGradient5511"
       xlink:href="#linearGradient3285"
       gradientUnits="userSpaceOnUse"
       gradientTransform="matrix(1,0,0,1.9019608,0,-6.1783597)" />
    <linearGradient
       x1="114.2963"
       y1="49.937351"
       x2="114.2963"
       y2="61.877388"
       id="linearGradient5521"
       xlink:href="#linearGradient5515"
       gradientUnits="userSpaceOnUse" />
    <linearGradient
       id="linearGradient5515">
      <stop
         id="stop5517"
         style="stop-color:#ffffff;stop-opacity:0"
         offset="0" />
      <stop
         id="stop5523"
         style="stop-color:#ffffff;stop-opacity:1"
         offset="0.32512316" />
      <stop
         id="stop5519"
         style="stop-color:#ffffff;stop-opacity:0"
         offset="1" />
    </linearGradient>
    <filter
       color-interpolation-filters="sRGB"
       id="filter5581">
      <feGaussianBlur
         id="feGaussianBlur5583"
         stdDeviation="0.20386597" />
    </filter>
    <linearGradient
       x1="114.2963"
       y1="49.937351"
       x2="114.2963"
       y2="61.877388"
       id="linearGradient5587"
       xlink:href="#linearGradient5515"
       gradientUnits="userSpaceOnUse" />
    <linearGradient
       id="linearGradient3686">
      <stop
         id="stop3688"
         style="stop-color:#ffffff;stop-opacity:0"
         offset="0" />
      <stop
         id="stop3690"
         style="stop-color:#ffffff;stop-opacity:1"
         offset="0.32512316" />
      <stop
         id="stop3692"
         style="stop-color:#ffffff;stop-opacity:0"
         offset="1" />
    </linearGradient>
    <linearGradient
       x1="63.993221"
       y1="80.369598"
       x2="63.993221"
       y2="66.131996"
       id="linearGradient5886"
       xlink:href="#linearGradient5880"
       gradientUnits="userSpaceOnUse" />
    <linearGradient
       id="linearGradient5880">
      <stop
         id="stop5882"
         style="stop-color:#ffffff;stop-opacity:1"
         offset="0" />
      <stop
         id="stop5884"
         style="stop-color:#ffffff;stop-opacity:0"
         offset="1" />
    </linearGradient>
    <filter
       color-interpolation-filters="sRGB"
       id="filter5876">
      <feGaussianBlur
         id="feGaussianBlur5878"
         stdDeviation="0.11909804" />
    </filter>
    <filter
       color-interpolation-filters="sRGB"
       id="filter5718">
      <feGaussianBlur
         id="feGaussianBlur5720"
         stdDeviation="0.48701799" />
    </filter>
    <filter
       color-interpolation-filters="sRGB"
       id="filter5836">
      <feGaussianBlur
         id="feGaussianBlur5838"
         stdDeviation="0.12356379" />
    </filter>
    <linearGradient
       x1="63.993221"
       y1="80.369598"
       x2="63.993221"
       y2="66.131996"
       id="linearGradient3708"
       xlink:href="#linearGradient5880"
       gradientUnits="userSpaceOnUse" />
    <filter
       color-interpolation-filters="sRGB"
       id="filter5960">
      <feGaussianBlur
         id="feGaussianBlur5962"
         stdDeviation="0.069666275" />
    </filter>
    <linearGradient
       x1="310.84995"
       y1="-27.656115"
       x2="310.84995"
       y2="270.16995"
       id="linearGradient3302"
       xlink:href="#linearGradient3292"
       gradientUnits="userSpaceOnUse" />
    <linearGradient
       id="linearGradient3292">
      <stop
         id="stop3294"
         style="stop-color:#000000;stop-opacity:1"
         offset="0" />
      <stop
         id="stop3304"
         style="stop-color:#ffffff;stop-opacity:1"
         offset="0.5" />
      <stop
         id="stop3296"
         style="stop-color:#ffffff;stop-opacity:1"
         offset="1" />
    </linearGradient>
    <filter
       color-interpolation-filters="sRGB"
       id="filter3310">
      <feGaussianBlur
         id="feGaussianBlur3312"
         stdDeviation="0.11377897" />
    </filter>
    <filter
       color-interpolation-filters="sRGB"
       id="filter3542">
      <feGaussianBlur
         id="feGaussianBlur3544"
         stdDeviation="1.56" />
    </filter>
    <radialGradient
       cx="52"
       cy="-31"
       r="136.00369"
       id="radialGradient9766"
       gradientUnits="userSpaceOnUse">
      <stop
         id="stop9768"
         style="stop-color:#8e8e8e;stop-opacity:1"
         offset="0" />
      <stop
         id="stop9774"
         style="stop-color:#ababab;stop-opacity:1"
         offset="0.5" />
      <stop
         id="stop9772"
         style="stop-color:#9d9d9d;stop-opacity:1"
         offset="1" />
    </radialGradient>
    <radialGradient
       cx="52"
       cy="-31"
       r="136.00369"
       id="radialGradient5295"
       gradientUnits="userSpaceOnUse">
      <stop
         id="stop5297"
         style="stop-color:#c6c6c6;stop-opacity:1"
         offset="0" />
      <stop
         id="stop5299"
         style="stop-color:#eeeeee;stop-opacity:1"
         offset="0.52140325" />
      <stop
         id="stop5301"
         style="stop-color:#c6c6c6;stop-opacity:1"
         offset="1" />
    </radialGradient>
    <linearGradient
       x1="9"
       y1="24.324116"
       x2="106.55763"
       y2="53.655067"
       id="XMLID_94_"
       gradientUnits="userSpaceOnUse">
      <stop
         id="stop35"
         style="stop-color:#555753;stop-opacity:1"
         offset="0" />
      <stop
         id="stop37"
         style="stop-color:#2e2e2e;stop-opacity:1"
         offset="0.62720001" />
      <stop
         id="stop39"
         style="stop-color:#2e2e2e;stop-opacity:1"
         offset="1" />
    </linearGradient>
    <linearGradient
       x1="24"
       y1="40"
       x2="24"
       y2="20"
       id="XMLID_95_"
       gradientUnits="userSpaceOnUse">
      <stop
         id="stop46"
         style="stop-color:#ffffff;stop-opacity:1"
         offset="0.5" />
      <stop
         id="stop48"
         style="stop-color:#eeeeec;stop-opacity:1"
         offset="1" />
    </linearGradient>
    <linearGradient
       x1="44"
       y1="44"
       x2="44"
       y2="40"
       id="XMLID_96_"
       gradientUnits="userSpaceOnUse">
      <stop
         id="stop53"
         style="stop-color:#ffffff;stop-opacity:1"
         offset="0.5" />
      <stop
         id="stop55"
         style="stop-color:#eeeeec;stop-opacity:1"
         offset="1" />
    </linearGradient>
    <linearGradient
       x1="63.993221"
       y1="80.369598"
       x2="63.993221"
       y2="66.131996"
       id="linearGradient3814"
       xlink:href="#linearGradient5880"
       gradientUnits="userSpaceOnUse" />
    <linearGradient
       x1="45.123108"
       y1="21.220039"
       x2="94.190605"
       y2="114.55814"
       id="linearGradient4269"
       xlink:href="#radialGradient9766"
       gradientUnits="userSpaceOnUse"
       gradientTransform="matrix(1,0,0,1.0572916,-6.9999996,-5.9166736)" />
    <linearGradient
       x1="8"
       y1="40.665478"
       x2="120"
       y2="64"
       id="linearGradient4271"
       xlink:href="#radialGradient5295"
       gradientUnits="userSpaceOnUse"
       gradientTransform="matrix(0.9687499,0,0,1.0208332,-4.9999973,-3.5833456)" />
    <linearGradient
       x1="9"
       y1="24.324116"
       x2="106.55763"
       y2="53.655067"
       id="linearGradient4273"
       xlink:href="#XMLID_94_"
       gradientUnits="userSpaceOnUse"
       gradientTransform="matrix(0.9867021,0,0,1,1.61969,0)" />
    <linearGradient
       x1="24"
       y1="40"
       x2="24"
       y2="20"
       id="linearGradient4275"
       xlink:href="#XMLID_95_"
       gradientUnits="userSpaceOnUse"
       gradientTransform="matrix(1.7499999,0,0,1.75,-12.99999,-3.0000066)" />
    <linearGradient
       x1="44"
       y1="44"
       x2="44"
       y2="40"
       id="linearGradient4277"
       xlink:href="#XMLID_96_"
       gradientUnits="userSpaceOnUse"
       gradientTransform="matrix(1.3125,0,0,1.7499999,-4.2499906,-3.0000026)" />
  </defs>
  <g
     id="layer1">
    <g
       transform="matrix(0.36723905,0,0,0.36723905,0.05524971,-0.94729443)"
       id="g3478">
      <path
         d="m 102.94938,121.70865 a 36.032284,4.0035872 0 1 1 -72.064565,0 36.032284,4.0035872 0 1 1 72.064565,0 z"
         transform="matrix(1,0,0,2,-3.4316462,-123.42447)"
         id="path5966"
         style="opacity:0.5018587;fill:url(#radialGradient5974);fill-opacity:1;stroke:none;filter:url(#filter6028)" />
      <path
         d="m 64.000003,4 c -3.27385,0.01728 -5.37577,0.17392 -8.625,0.625 -0.96195,0.15318 -1.75,0.78055 -1.75,1.75 l -0.59375,9.4375 c -0.08851,0.95519 -0.75664,1.58433 -1.46875,1.8125 -0.02183,0.007 -0.0406,0.02503 -0.0625,0.03125 -4.11684,1.10517 -8.02293,2.7221 -11.625,4.8125 -0.65155,0.28193 -1.49213,0.26494 -2.1875,-0.3125 l -7.09375,-6.25 c -0.6855,-0.6855 -1.68023,-0.57188 -2.46875,0 -2.61651,1.97859 -4.23532,3.3535 -6.5625,5.65625 -2.30274,2.32718 -3.67766,3.94598 -5.65625,6.5625 -0.57188,0.78852 -0.6855,1.78325 0,2.46875 l 6.25,7.09375 c 0.47372,0.57048 0.7362,1.30885 0.46875,1.84375 l -0.0625,0.125 c -2.24552,3.7996 -3.99486,7.93631 -5.125,12.3125 -0.01184,0.02064 -0.01867,0.04216 -0.03125,0.0625 -0.31721,0.51284 -0.85539,0.93158 -1.59375,1 L 6.3750027,53.625 c -0.9694404,0 -1.5968104,0.78805 -1.7500004,1.75 -0.45108,3.24923 -0.60772,5.35115 -0.625,8.625 0.01728,3.27385 0.17392,5.37577 0.625,8.625 0.15319,0.96195 0.78056,1.75 1.7500004,1.75 l 9.4375003,0.59375 c 0.86735,0.08037 1.44344,0.64657 1.71875,1.28125 1.10323,4.14335 2.76625,8.06421 4.875,11.6875 0.37292,0.66851 0.38163,1.61436 -0.25,2.375 l -6.25,7.09375 c -0.6855,0.6855 -0.57188,1.68023 0,2.46875 1.97859,2.61651 3.35351,4.23531 5.65625,6.5625 2.32718,2.30274 3.94598,3.67766 6.5625,5.65625 0.78852,0.57188 1.78325,0.6855 2.46875,0 l 7.09375,-6.25 c 0.76064,-0.63163 1.70649,-0.62292 2.375,-0.25 l 0.09375,-0.0937 c 3.52766,2.01717 7.32819,3.60952 11.34375,4.6875 l 0,0.15625 c 0.7364,0.20901 1.44003,0.85927 1.53125,1.84375 l 0.59375,9.4375 c 0,0.96944 0.78805,1.59681 1.75,1.75 3.24923,0.45108 5.35115,0.60772 8.625,0.625 3.27385,-0.0173 5.37577,-0.17392 8.625,-0.625 0.96195,-0.15319 1.75,-0.78056 1.75,-1.75 l 0.59375,-9.4375 c 0.09122,-0.98448 0.79485,-1.63474 1.53125,-1.84375 l 0,-0.15625 c 4.01556,-1.07798 7.8161,-2.67033 11.34375,-4.6875 l 0.09375,0.0937 c 0.66851,-0.37292 1.61436,-0.38163 2.375,0.25 l 7.093745,6.25 c 0.6855,0.68551 1.68024,0.57189 2.46875,0 2.616512,-1.97859 4.235312,-3.35351 6.562502,-5.65625 2.30274,-2.32719 3.67766,-3.94599 5.65625,-6.5625 0.57189,-0.78851 0.68551,-1.78324 0,-2.46875 l -6.25,-7.09375 c -0.63163,-0.76064 -0.62292,-1.70649 -0.25,-2.375 2.10875,-3.62329 3.77177,-7.54415 4.875,-11.6875 0.27531,-0.63468 0.8514,-1.20088 1.71875,-1.28125 L 121.625,74.375 c 0.96945,0 1.59682,-0.78805 1.75,-1.75 0.45108,-3.24923 0.60772,-5.35115 0.625,-8.625 -0.0173,-3.27385 -0.17392,-5.37577 -0.625,-8.625 -0.15318,-0.96195 -0.78055,-1.75 -1.75,-1.75 l -9.4375,-0.59375 c -0.73836,-0.06842 -1.27654,-0.48716 -1.59375,-1 -0.006,-0.02192 -0.0256,-0.04059 -0.0312,-0.0625 -1.13014,-4.37619 -3.15121,-8.36491 -5.125,-12.3125 l -0.0625,-0.125 c -0.26745,-0.5349 -0.005,-1.27327 0.46875,-1.84375 l 6.25,-7.09375 c 0.68551,-0.68551 0.57188,-1.68023 0,-2.46875 -1.97859,-2.61652 -3.35351,-4.23532 -5.65625,-6.5625 -2.32718,-2.30275 -3.94598,-3.67766 -6.562502,-5.65625 -0.78852,-0.57188 -1.78324,-0.68551 -2.46875,0 l -7.093745,6.25 c -0.69538,0.57744 -1.53595,0.59443 -2.1875,0.3125 -3.60207,-2.0904 -7.50816,-3.70733 -11.625,-4.8125 -0.0219,-0.0062 -0.04067,-0.02425 -0.0625,-0.03125 -0.71211,-0.22817 -1.38024,-0.85731 -1.46875,-1.8125 l -0.5938,-9.4375 c 0,-0.96945 -0.78805,-1.59682 -1.75,-1.75 -3.24923,-0.45108 -5.35115,-0.60772 -8.625,-0.625 z m 0,44 c 8.832,0 16,7.168 16,16 0,8.832 -7.168,16 -16,16 -8.832,0 -16,-7.168 -16,-16 0,-8.832 7.168,-16 16,-16 z"
         id="path5091"
         style="fill:#363636;fill-opacity:1;stroke:#767676;stroke-width:2;stroke-linecap:round;stroke-linejoin:round;stroke-miterlimit:4;stroke-opacity:1;stroke-dasharray:none;stroke-dashoffset:1.08779998" />
      <path
         d="m 64.000002,4 c -3.273853,0.01728 -5.375768,0.17392 -8.625,0.625 -0.96195,0.15318 -1.75,0.78055 -1.75,1.75 l -0.59375,9.4375 c -0.08851,0.95519 -0.756643,1.58433 -1.46875,1.8125 -0.02183,0.007 -0.0406,0.02503 -0.0625,0.03125 -4.116837,1.10517 -8.022926,2.7221 -11.625,4.8125 -0.651546,0.28193 -1.492126,0.26494 -2.1875,-0.3125 l -7.09375,-6.25 c -0.685498,-0.6855 -1.680227,-0.57188 -2.46875,0 -2.616515,1.97859 -4.235317,3.35351 -6.5625,5.65625 -2.302745,2.32718 -3.677658,3.94598 -5.65625,6.5625 -0.571877,0.78852 -0.685498,1.78325 0,2.46875 l 6.25,7.09375 c 0.473721,0.57048 0.736202,1.30885 0.46875,1.84375 l -0.0625,0.125 c -2.245518,3.7996 -3.99486,7.936314 -5.125,12.312501 -0.01184,0.02064 -0.01867,0.04216 -0.03125,0.0625 -0.317209,0.512841 -0.85539,0.931584 -1.59375,1 l -9.4375003,0.59375 c -0.9694402,0 -1.5968102,0.78805 -1.7500002,1.75 -0.45108,3.249232 -0.60772,5.351147 -0.625,8.625 0.01728,3.273853 0.17392,5.375768 0.625,8.625 0.15319,0.961946 0.78056,1.75 1.7500002,1.75 l 9.4375003,0.59375 c 0.867346,0.08037 1.443436,0.646567 1.71875,1.28125 1.10323,4.143354 2.766253,8.064208 4.875,11.6875 0.372921,0.668507 0.38163,1.614364 -0.25,2.375 l -6.25,7.09375 c -0.685498,0.685496 -0.57188,1.680229 0,2.468749 1.978592,2.61651 3.353505,4.23531 5.65625,6.5625 2.327183,2.30274 3.945984,3.67766 6.5625,5.65625 0.788521,0.57188 1.783252,0.6855 2.46875,0 l 7.09375,-6.25 c 0.760638,-0.63163 1.706493,-0.62292 2.375,-0.25 l 0.09375,-0.0937 c 3.527655,2.01717 7.328193,3.60952 11.34375,4.6875 l 0,0.15625 c 0.736401,0.20901 1.440029,0.85927 1.53125,1.84375 l 0.59375,9.4375 c 0,0.96944 0.78805,1.59681 1.75,1.75 3.249232,0.45108 5.351147,0.60772 8.625,0.625 3.273853,-0.0173 5.375768,-0.17392 8.625,-0.625 0.961946,-0.15319 1.75,-0.78056 1.75,-1.75 l 0.59375,-9.4375 c 0.09122,-0.98448 0.794849,-1.63474 1.53125,-1.84375 l 0,-0.15625 c 4.015557,-1.07798 7.816095,-2.67033 11.34375,-4.6875 l 0.09375,0.0937 c 0.668507,-0.37292 1.614362,-0.38163 2.375,0.25 l 7.093746,6.25 c 0.68551,0.68551 1.68024,0.57189 2.46875,0 2.616512,-1.97859 4.235312,-3.35351 6.562502,-5.65625 2.30274,-2.32719 3.67766,-3.94599 5.65625,-6.5625 0.57189,-0.78851 0.68551,-1.783244 0,-2.468749 l -6.25,-7.09375 c -0.63163,-0.76064 -0.62292,-1.706493 -0.25,-2.375 2.10875,-3.623292 3.77177,-7.544146 4.875,-11.6875 0.27531,-0.634683 0.8514,-1.20088 1.71875,-1.28125 l 9.4375,-0.59375 c 0.96945,0 1.59682,-0.788054 1.75,-1.75 0.45108,-3.249232 0.60772,-5.351147 0.625,-8.625 -0.0173,-3.273853 -0.17392,-5.375768 -0.625,-8.625 -0.15318,-0.96195 -0.78055,-1.75 -1.75,-1.75 l -9.4375,-0.59375 c -0.73836,-0.06842 -1.27654,-0.487159 -1.59375,-1 -0.006,-0.02192 -0.0256,-0.04059 -0.0312,-0.0625 -1.13014,-4.376187 -3.15121,-8.364911 -5.125,-12.312501 l -0.0625,-0.125 c -0.26745,-0.5349 -0.005,-1.27327 0.46875,-1.84375 l 6.25,-7.09375 c 0.68551,-0.68551 0.57188,-1.68023 0,-2.46875 -1.97859,-2.61652 -3.35351,-4.23532 -5.65625,-6.5625 -2.32718,-2.30275 -3.94598,-3.67766 -6.562502,-5.65625 -0.78851,-0.57188 -1.78324,-0.6855 -2.46875,0 l -7.093746,6.25 c -0.695376,0.57744 -1.535955,0.59443 -2.1875,0.3125 -3.602075,-2.0904 -7.508163,-3.70733 -11.625,-4.8125 -0.0219,-0.0062 -0.04067,-0.02425 -0.0625,-0.03125 -0.712107,-0.22817 -1.380239,-0.85731 -1.46875,-1.8125 l -0.5938,-9.4375 c 0,-0.96945 -0.788054,-1.59682 -1.75,-1.75 C 69.37577,4.17392 67.273855,4.01728 64.000002,4 z m 0,44.000001 c 8.831999,-10e-7 16,7.168 16,16 -10e-7,8.832 -7.168001,16 -16,16 -8.832,0 -16,-7.168 -16,-16 10e-7,-8.832001 7.168001,-16 16,-16 z"
         id="path3139"
         style="fill:url(#linearGradient2317);fill-opacity:1;stroke:none" />
      <path
         d="m -83.999999,4 c -3.273853,0.017276 -5.375768,0.1739184 -8.625,0.625 -0.96195,0.153184 -1.75,0.7805494 -1.75,1.75 l -0.59375,9.4375 c -0.08851,0.955194 -0.756643,1.58433 -1.46875,1.8125 -0.02183,0.007 -0.0406,0.02503 -0.0625,0.03125 -4.116841,1.105169 -8.022931,2.722102 -11.625001,4.8125 -0.65155,0.281931 -1.49213,0.264937 -2.1875,-0.3125 l -7.09375,-6.25 c -0.6855,-0.685498 -1.68023,-0.57188 -2.46875,0 -2.61651,1.978592 -4.23532,3.353505 -6.5625,5.65625 -2.30274,2.327183 -3.67766,3.945984 -5.65625,6.5625 -0.57188,0.788521 -0.6855,1.783252 0,2.46875 l 6.25,7.09375 c 0.47372,0.570479 0.7362,1.308846 0.46875,1.84375 l -0.0625,0.125 c -2.24552,3.7996 -3.99486,7.936313 -5.125,12.3125 -0.0118,0.02064 -0.0187,0.04216 -0.0312,0.0625 -0.31721,0.512841 -0.85539,0.931584 -1.59375,1 l -9.4375,0.59375 c -0.96944,0 -1.59681,0.78805 -1.75,1.75 -0.45108,3.249232 -0.60772,5.351147 -0.625,8.625 0.0173,3.273853 0.17392,5.375768 0.625,8.625 0.15319,0.961946 0.78056,1.75 1.75,1.75 l 9.4375,0.59375 c 0.86735,0.08037 1.44344,0.646567 1.71875,1.28125 1.10323,4.143354 2.76625,8.064208 4.875,11.6875 0.37292,0.668507 0.38163,1.614364 -0.25,2.375 l -6.25,7.09375 c -0.6855,0.685496 -0.57188,1.680227 0,2.46875 1.97859,2.61651 3.35351,4.23531 5.65625,6.5625 2.32718,2.30274 3.94598,3.67766 6.5625,5.65625 0.78852,0.57188 1.78325,0.6855 2.46875,0 l 7.09375,-6.25 c 0.76064,-0.63163 1.70649,-0.62292 2.375,-0.25 l 0.0937,-0.0937 c 3.52766,2.01717 7.32819,3.60952 11.343751,4.6875 l 0,0.15625 c 0.736401,0.20901 1.440029,0.85927 1.53125,1.84375 l 0.59375,9.4375 c 0,0.96944 0.78805,1.59681 1.75,1.75 3.249232,0.45108 5.351147,0.60772 8.625,0.625 3.273853,-0.0173 5.375768,-0.17392 8.625,-0.625 0.961946,-0.15319 1.75,-0.78056 1.75,-1.75 l 0.59375,-9.4375 c 0.09122,-0.98448 0.794849,-1.63474 1.53125,-1.84375 l 0,-0.15625 c 4.015557,-1.07798 7.816095,-2.67033 11.34375,-4.6875 l 0.09375,0.0937 c 0.668507,-0.37292 1.614362,-0.38163 2.375,0.25 l 7.09375,6.25 c 0.685503,0.68551 1.680237,0.57189 2.46875,0 2.61651,-1.97859 4.23531,-3.35351 6.5625,-5.65625 2.30274,-2.32719 3.67766,-3.94599 5.65625,-6.5625 0.57189,-0.788513 0.68551,-1.783245 0,-2.46875 l -6.25,-7.09375 c -0.63163,-0.76064 -0.62292,-1.706493 -0.25,-2.375 2.10875,-3.623292 3.77177,-7.544146 4.875,-11.6875 0.27531,-0.634683 0.8514,-1.20088 1.71875,-1.28125 l 9.4375,-0.59375 c 0.96945,0 1.59682,-0.788054 1.75,-1.75 0.45108,-3.249232 0.60772,-5.351147 0.625,-8.625 -0.01728,-3.273853 -0.17392,-5.375768 -0.625,-8.625 -0.15318,-0.96195 -0.78055,-1.75 -1.75,-1.75 l -9.4375,-0.59375 c -0.73836,-0.06842 -1.27654,-0.487159 -1.59375,-1 -0.0056,-0.02192 -0.02559,-0.04059 -0.03125,-0.0625 -1.13014,-4.376187 -3.15121,-8.364911 -5.125,-12.3125 l -0.0625,-0.125 c -0.26745,-0.534904 -0.005,-1.273273 0.46875,-1.84375 l 6.25,-7.09375 c 0.68551,-0.685506 0.57188,-1.680234 0,-2.46875 -1.97859,-2.616516 -3.35351,-4.23532 -5.65625,-6.5625 -2.32718,-2.302747 -3.94598,-3.677659 -6.5625,-5.65625 -0.788516,-0.571884 -1.783244,-0.685505 -2.46875,0 l -7.09375,6.25 c -0.695376,0.577435 -1.535955,0.594432 -2.1875,0.3125 -3.602075,-2.090398 -7.508163,-3.707331 -11.625,-4.8125 -0.0219,-0.0062 -0.04067,-0.02426 -0.0625,-0.03125 -0.712107,-0.22817 -1.380239,-0.857306 -1.46875,-1.8125 l -0.59375,-9.4375 c 0,-0.9694506 -0.788054,-1.596816 -1.75,-1.75 -3.249232,-0.4510816 -5.351147,-0.6077236 -8.625,-0.625 z m 0,44 c 8.831999,-10e-7 16,7.168 16,16 -10e-7,8.832 -7.168001,16 -16,16 -8.832,0 -16,-7.168 -16,-16 10e-7,-8.832001 7.168001,-16 16,-16 z"
         transform="translate(148,0)"
         mask="url(#mask4921)"
         id="path4891"
         style="fill:url(#radialGradient5177);fill-opacity:1;stroke:none" />
      <path
         d="m 76.90625,-70.062499 c -2.912256,3.972096 -7.607051,6.5625 -12.90625,6.5625 -4.895788,0 -9.283068,-2.188651 -12.21875,-5.65625 l -31.5,30.75 c 0.408832,0.434 0.807117,0.86458 1.28125,1.34375 2.32718,2.30274 3.94598,3.67766 6.5625,5.65625 0.78852,0.57188 1.78325,0.6855 2.46875,0 l 7.09375,-6.25 c 0.76064,-0.63163 1.70649,-0.62292 2.375,-0.25 l 0.09375,-0.09375 c 3.52766,2.01717 7.328189,3.60952 11.34375,4.6875 l 0,0.15625 c 0.736402,0.20901 1.440029,0.85927 1.53125,1.84375 l 0.59375,9.4375 c 10e-7,0.96944 0.78805,1.59681 1.75,1.75 3.249233,0.45108 5.351147,0.60772 8.625,0.625 3.273854,-0.01728 5.375768,-0.17392 8.625,-0.625 0.961947,-0.15319 1.75,-0.78056 1.75,-1.75 l 0.59375,-9.4375 c 0.09122,-0.98448 0.794849,-1.63474 1.53125,-1.84375 l 0,-0.15625 c 4.015558,-1.07798 7.816095,-2.67033 11.34375,-4.6875 l 0.09375,0.09375 c 0.668508,-0.37292 1.614362,-0.38163 2.375,0.25 l 7.09375,6.25 c 0.685504,0.68551 1.680237,0.57189 2.46875,0 2.61651,-1.97859 4.23531,-3.35351 6.5625,-5.65625 0.48542,-0.49057 0.8952,-0.93141 1.3125,-1.375 l -30.84375,-31.625 z"
         transform="translate(1.5e-6,143.5)"
         clip-path="url(#clipPath5073)"
         id="path4953"
         style="opacity:0.43122678;fill:url(#radialGradient5179);fill-opacity:1;stroke:none;filter:url(#filter5054)" />
      <path
         d="m 76.90625,-70.062499 c -2.912256,3.972096 -7.607051,6.5625 -12.90625,6.5625 -4.895788,0 -9.283068,-2.188651 -12.21875,-5.65625 l -31.5,30.75 c 0.408832,0.434 0.807117,0.86458 1.28125,1.34375 2.32718,2.30274 3.94598,3.67766 6.5625,5.65625 0.78852,0.57188 1.78325,0.6855 2.46875,0 l 7.09375,-6.25 c 0.76064,-0.63163 1.70649,-0.62292 2.375,-0.25 l 0.09375,-0.09375 c 3.52766,2.01717 7.328189,3.60952 11.34375,4.6875 l 0,0.15625 c 0.736402,0.20901 1.440029,0.85927 1.53125,1.84375 l 0.59375,9.4375 c 10e-7,0.96944 0.78805,1.59681 1.75,1.75 3.249233,0.45108 5.351147,0.60772 8.625,0.625 3.273854,-0.01728 5.375768,-0.17392 8.625,-0.625 0.961947,-0.15319 1.75,-0.78056 1.75,-1.75 l 0.59375,-9.4375 c 0.09122,-0.98448 0.794849,-1.63474 1.53125,-1.84375 l 0,-0.15625 c 4.015558,-1.07798 7.816095,-2.67033 11.34375,-4.6875 l 0.09375,0.09375 c 0.668508,-0.37292 1.614362,-0.38163 2.375,0.25 l 7.09375,6.25 c 0.685504,0.68551 1.680237,0.57189 2.46875,0 2.61651,-1.97859 4.23531,-3.35351 6.5625,-5.65625 0.48542,-0.49057 0.8952,-0.93141 1.3125,-1.375 l -30.84375,-31.625 z"
         transform="matrix(-1,0,0,-1,127.98705,-15.49155)"
         clip-path="url(#clipPath5073)"
         id="path5079"
         style="opacity:0.43122678;fill:url(#radialGradient5181);fill-opacity:1;stroke:none;filter:url(#filter5054)" />
      <path
         d="m 64.000002,4 c -3.27385,0.01728 -5.37577,0.17392 -8.625,0.625 -0.96195,0.15318 -1.75,0.78055 -1.75,1.75 l -0.59375,9.4375 c -0.08851,0.95519 -0.75664,1.58433 -1.46875,1.8125 -0.02183,0.007 -0.0406,0.02503 -0.0625,0.03125 -4.11684,1.10517 -8.02293,2.7221 -11.625,4.8125 -0.65155,0.28193 -1.49213,0.26494 -2.1875,-0.3125 l -7.09375,-6.25 c -0.6855,-0.6855 -1.68023,-0.57188 -2.46875,0 -2.61651,1.97859 -4.23532,3.3535 -6.5625,5.65625 -2.30274,2.32718 -3.67766,3.94598 -5.65625,6.5625 -0.57188,0.78852 -0.6855,1.78325 0,2.46875 l 6.25,7.09375 c 0.47372,0.57048 0.7362,1.30885 0.46875,1.84375 l -0.0625,0.125 c -2.24552,3.7996 -3.99486,7.936313 -5.125,12.3125 -0.01184,0.02064 -0.01867,0.04216 -0.03125,0.0625 -0.31721,0.512841 -0.85539,0.931584 -1.59375,1 L 6.3750017,53.625 c -0.9694397,0 -1.5968097,0.78805 -1.7499997,1.75 -0.45108,3.249232 -0.60772,5.351147 -0.625,8.625 0.01728,3.273853 0.17392,5.375768 0.625,8.625 0.15319,0.961946 0.78056,1.75 1.7499997,1.75 l 9.4375003,0.59375 c 0.86735,0.08037 1.44344,0.646567 1.71875,1.28125 1.10323,4.143354 2.76625,8.064208 4.875,11.6875 0.37292,0.668507 0.38163,1.614364 -0.25,2.375 l -6.25,7.09375 c -0.6855,0.685496 -0.57188,1.68023 0,2.46875 1.97859,2.61651 3.35351,4.23531 5.65625,6.5625 2.32718,2.30274 3.94598,3.67766 6.5625,5.65625 0.78852,0.57188 1.78325,0.6855 2.46875,0 l 7.09375,-6.25 c 0.76064,-0.63163 1.70649,-0.62292 2.375,-0.25 l 0.09375,-0.0937 c 3.52766,2.01717 7.32819,3.60952 11.34375,4.6875 l 0,0.15625 c 0.7364,0.20901 1.44003,0.85927 1.53125,1.84375 l 0.59375,9.4375 c 0,0.96944 0.78805,1.59681 1.75,1.75 3.24923,0.45108 5.35115,0.60772 8.625,0.625 3.27385,-0.0173 5.37577,-0.17392 8.625,-0.625 0.96195,-0.15319 1.75,-0.78056 1.75,-1.75 l 0.59375,-9.4375 c 0.09122,-0.98448 0.79485,-1.63474 1.53125,-1.84375 l 0,-0.15625 c 4.01556,-1.07798 7.8161,-2.67033 11.34375,-4.6875 l 0.09375,0.0937 c 0.66851,-0.37292 1.61436,-0.38163 2.375,0.25 l 7.093746,6.25 c 0.6855,0.68551 1.68024,0.57189 2.46875,0 2.616512,-1.97859 4.235312,-3.35351 6.562502,-5.65625 2.30274,-2.32719 3.67766,-3.94599 5.65625,-6.5625 0.57189,-0.78851 0.68551,-1.783245 0,-2.46875 l -6.25,-7.09375 c -0.63163,-0.76064 -0.62292,-1.706493 -0.25,-2.375 2.10875,-3.623292 3.77177,-7.544146 4.875,-11.6875 0.27531,-0.634683 0.8514,-1.20088 1.71875,-1.28125 L 121.625,74.375 c 0.96945,0 1.59682,-0.788054 1.75,-1.75 0.45108,-3.249232 0.60772,-5.351147 0.625,-8.625 -0.0173,-3.273853 -0.17392,-5.375768 -0.625,-8.625 -0.15318,-0.96195 -0.78055,-1.75 -1.75,-1.75 l -9.4375,-0.59375 c -0.73836,-0.06842 -1.27654,-0.487159 -1.59375,-1 -0.006,-0.02192 -0.0256,-0.04059 -0.0312,-0.0625 -1.13014,-4.376187 -3.15121,-8.364911 -5.125,-12.3125 l -0.0625,-0.125 c -0.26745,-0.5349 -0.005,-1.27327 0.46875,-1.84375 l 6.25,-7.09375 c 0.68551,-0.68551 0.57188,-1.68023 0,-2.46875 -1.97859,-2.61652 -3.35351,-4.23532 -5.65625,-6.5625 -2.32718,-2.30275 -3.94598,-3.67766 -6.562502,-5.65625 -0.78852,-0.57188 -1.78324,-0.68551 -2.46875,0 l -7.093746,6.25 c -0.69538,0.57744 -1.53595,0.59443 -2.1875,0.3125 -3.60207,-2.0904 -7.50816,-3.70733 -11.625,-4.8125 -0.0219,-0.0062 -0.04067,-0.02425 -0.0625,-0.03125 -0.71211,-0.22817 -1.38024,-0.85731 -1.46875,-1.8125 l -0.5938,-9.4375 c 0,-0.96945 -0.78805,-1.59682 -1.75,-1.75 -3.24923,-0.45108 -5.35115,-0.60772 -8.625,-0.625 z m 0,44 c 8.832,-10e-7 16,7.168 16,16 0,8.832 -7.168,16 -16,16 -8.832,0 -16,-7.168 -16,-16 0,-8.832001 7.168,-16 16,-16 z"
         id="path5085"
         style="opacity:0.73234199;fill:url(#radialGradient2311);fill-opacity:1;stroke:none" />
      <path
         d="m 63.969328,3.96691 c -3.27385,0.01728 -5.37577,0.17392 -8.625,0.625 -0.96195,0.15318 -1.75,0.78055 -1.75,1.75 l -0.59375,9.4375 c -0.08851,0.95519 -0.75664,1.58433 -1.46875,1.8125 -0.02183,0.007 -0.0406,0.02503 -0.0625,0.03125 -4.11684,1.10517 -8.02293,2.7221 -11.625,4.8125 -0.65155,0.28193 -1.49213,0.26494 -2.1875,-0.3125 l -7.09375,-6.25 c -0.6855,-0.6855 -1.68023,-0.57188 -2.46875,0 -2.61651,1.97859 -4.23532,3.3535 -6.5625,5.65625 -2.30274,2.32718 -3.67766,3.94598 -5.65625,6.5625 -0.57188,0.78852 -0.6855,1.78325 0,2.46875 l 6.25,7.09375 c 0.47372,0.57048 0.7362,1.30885 0.46875,1.84375 l -0.0625,0.125 c -2.24552,3.7996 -3.99486,7.936315 -5.125,12.312505 -0.01184,0.02064 -0.01867,0.04216 -0.03125,0.0625 -0.31721,0.512841 -0.85539,0.931584 -1.59375,1 l -9.4375003,0.59375 c -0.9694401,0 -1.5968101,0.78805 -1.7500001,1.75 -0.45108,3.249232 -0.60772,5.351147 -0.625,8.625 0.01728,3.273853 0.17392,5.375768 0.625,8.625 0.15319,0.961946 0.78056,1.75 1.7500001,1.75 l 9.4375003,0.59375 c 0.86735,0.08037 1.44344,0.646567 1.71875,1.28125 1.10323,4.143354 2.76625,8.064208 4.875,11.6875 0.37292,0.668507 0.38163,1.614364 -0.25,2.375 l -6.25,7.09375 c -0.6855,0.685496 -0.57188,1.680225 0,2.468755 1.97859,2.61651 3.35351,4.23531 5.65625,6.5625 2.32718,2.30274 3.94598,3.67766 6.5625,5.65625 0.78852,0.57188 1.78325,0.6855 2.46875,0 l 7.09375,-6.25 c 0.76064,-0.63163 1.70649,-0.62292 2.375,-0.25 l 0.09375,-0.0937 c 3.52766,2.01717 7.32819,3.60952 11.34375,4.6875 l 0,0.15625 c 0.7364,0.20901 1.44003,0.85927 1.53125,1.84375 l 0.59375,9.4375 c 0,0.96944 0.78805,1.59681 1.75,1.75 3.24923,0.45108 5.35115,0.60772 8.625,0.625 3.27385,-0.0173 5.37577,-0.17392 8.625,-0.625 0.96195,-0.15319 1.75,-0.78056 1.75,-1.75 l 0.59375,-9.4375 c 0.09122,-0.98448 0.79485,-1.63474 1.53125,-1.84375 l 0,-0.15625 c 4.01556,-1.07798 7.8161,-2.67033 11.34375,-4.6875 l 0.09375,0.0937 c 0.66851,-0.37292 1.61436,-0.38163 2.375,0.25 l 7.09375,6.25 c 0.6855,0.68551 1.68024,0.57189 2.46875,0 2.616512,-1.97859 4.235312,-3.35351 6.562502,-5.65625 2.30274,-2.32719 3.67766,-3.94599 5.65625,-6.5625 0.57189,-0.78852 0.68551,-1.78325 0,-2.468755 l -6.25,-7.09375 c -0.63163,-0.76064 -0.62292,-1.706493 -0.25,-2.375 2.10875,-3.623292 3.77177,-7.544146 4.875,-11.6875 0.27531,-0.634683 0.8514,-1.20088 1.71875,-1.28125 l 9.4375,-0.59375 c 0.96945,0 1.59682,-0.788054 1.75,-1.75 0.45108,-3.249232 0.60772,-5.351147 0.625,-8.625 -0.0173,-3.273853 -0.17392,-5.375768 -0.625,-8.625 -0.15318,-0.96195 -0.78055,-1.75 -1.75,-1.75 l -9.4375,-0.59375 c -0.73836,-0.06842 -1.27654,-0.487159 -1.59375,-1 -0.006,-0.02192 -0.0256,-0.04059 -0.0312,-0.0625 -1.13014,-4.37619 -3.15121,-8.36491 -5.125,-12.312505 l -0.0625,-0.125 c -0.26745,-0.5349 -0.005,-1.27327 0.46875,-1.84375 l 6.25,-7.09375 c 0.68551,-0.68551 0.57188,-1.68023 0,-2.46875 -1.97859,-2.61652 -3.35351,-4.23532 -5.65625,-6.5625 -2.32718,-2.30275 -3.94598,-3.67766 -6.562502,-5.65625 -0.78852,-0.57188 -1.78324,-0.68551 -2.46875,0 l -7.09375,6.25 c -0.69538,0.57744 -1.53595,0.59443 -2.1875,0.3125 -3.60207,-2.0904 -7.50816,-3.70733 -11.625,-4.8125 -0.0219,-0.0062 -0.04067,-0.02425 -0.0625,-0.03125 -0.71211,-0.22817 -1.38024,-0.85731 -1.46875,-1.8125 l -0.59375,-9.4375 c 0,-0.96945 -0.78805,-1.59682 -1.75,-1.75 -3.24923,-0.45108 -5.35115,-0.60772 -8.625,-0.625 z m 0,44.000005 c 8.832,0 16,7.168 16,16 0,8.832 -7.168,16 -16,16 -8.832,0 -16,-7.168 -16,-16 0,-8.832001 7.168,-16 16,-16 z"
         id="path5139"
         style="fill:none;stroke:url(#linearGradient2308);stroke-width:1;stroke-linecap:round;stroke-linejoin:round;stroke-miterlimit:4;stroke-opacity:1;stroke-dasharray:none;stroke-dashoffset:1.08779998;filter:url(#filter5162)" />
      <path
         d="m 15.486342,28.9375 c -0.15996,0.585415 -0.05599,1.194009 0.40625,1.65625 l 6.25,7.09375 c 0.21372,0.257372 0.37029,0.552135 0.46875,0.84375 0.26745,-0.5349 0.005,-1.27327 -0.46875,-1.84375 l -6.25,-7.09375 c -0.19732,-0.197317 -0.33322,-0.419984 -0.40625,-0.65625 z m 96.968748,0 c -0.073,0.236267 -0.17768,0.45893 -0.375,0.65625 l -6.25,7.09375 c -0.4659,0.561062 -0.71466,1.279923 -0.46875,1.8125 0.10008,-0.279487 0.26388,-0.565778 0.46875,-0.8125 l 6.25,-7.09375 c 0.46225,-0.462248 0.53497,-1.070837 0.375,-1.65625 z M 63.986342,47 c -8.832,0 -16.000002,7.167999 -16,16 0,0.170003 0.02598,0.331269 0.03125,0.5 0.268634,-8.597172 7.306753,-15.5 15.96875,-15.5 8.662105,-10e-7 15.700284,6.902677 15.96875,15.5 0.0053,-0.168622 0.03125,-0.330107 0.03125,-0.5 0,-8.832 -7.168002,-16.000001 -16,-16 z m 59.999998,16.5 c -0.0312,2.979862 -0.19862,5.053675 -0.625,8.125 -0.15318,0.961946 -0.78055,1.75 -1.75,1.75 l -9.4375,0.59375 c -0.86735,0.08037 -1.44344,0.646567 -1.71875,1.28125 -1.10323,4.143354 -2.76625,8.064208 -4.875,11.6875 -0.23735,0.425483 -0.34767,0.969076 -0.21875,1.5 0.0438,-0.183799 0.13021,-0.341279 0.21875,-0.5 2.10875,-3.623292 3.77177,-7.544146 4.875,-11.6875 0.27531,-0.634683 0.8514,-1.20088 1.71875,-1.28125 l 9.4375,-0.59375 c 0.96945,0 1.59682,-0.788054 1.75,-1.75 0.45108,-3.249232 0.60772,-5.351147 0.625,-8.625 -9.4e-4,-0.179255 0.002,-0.327391 0,-0.5 z M 4.0175921,65.28125 c 0.05113,2.570485 0.20602,4.550813 0.59375,7.34375 0.15319,0.961946 0.78056,1.75 1.75,1.75 l 9.4374999,0.59375 c 0.86735,0.08037 1.44344,0.646567 1.71875,1.28125 1.10323,4.143354 2.76625,8.064208 4.875,11.6875 0.08835,0.158385 0.14371,0.31663 0.1875,0.5 0.12892,-0.530924 0.04985,-1.074517 -0.1875,-1.5 -2.10875,-3.623292 -3.77177,-7.544146 -4.875,-11.6875 -0.27531,-0.634683 -0.8514,-1.20088 -1.71875,-1.28125 L 6.3613421,73.375 c -0.96944,0 -1.59681,-0.788054 -1.75,-1.75 -0.33831,-2.436924 -0.52126,-4.219122 -0.59375,-6.34375 z M 15.486342,98.0625 c -0.18067,0.584547 -0.001,1.250951 0.40625,1.8125 1.97859,2.61651 3.35351,4.23531 5.65625,6.5625 2.32718,2.30274 3.94598,3.67766 6.5625,5.65625 0.788518,0.57188 1.78325,0.6855 2.46875,0 l 7.09375,-6.25 c 0.760638,-0.63163 1.70649,-0.62292 2.375,-0.25 l 0.09375,-0.0937 c 3.527658,2.01717 7.32819,3.60952 11.34375,4.6875 l 0,0.15625 c 0.736398,0.20901 1.44003,0.85927 1.53125,1.84375 l 0.59375,9.4375 c -2e-6,0.96944 0.78805,1.59681 1.75,1.75 3.249228,0.45108 5.35115,0.60772 8.625,0.625 3.273848,-0.0173 5.37577,-0.17392 8.625,-0.625 0.961948,-0.15319 1.75,-0.78056 1.75,-1.75 l 0.59375,-9.4375 c 0.09122,-0.98448 0.79485,-1.63474 1.53125,-1.84375 l 0,-0.15625 c 4.015558,-1.07798 7.8161,-2.67033 11.34375,-4.6875 l 0.09375,0.0937 c 0.668508,-0.37292 1.61436,-0.38163 2.375,0.25 l 7.09375,6.25 c 0.6855,0.68551 1.68024,0.57189 2.468748,0 2.61651,-1.97859 4.23531,-3.35351 6.5625,-5.65625 2.30274,-2.32719 3.67766,-3.94599 5.65625,-6.5625 0.40728,-0.561542 0.55568,-1.22795 0.375,-1.8125 -0.0773,0.282751 -0.18874,0.555692 -0.375,0.8125 -1.97859,2.61651 -3.35351,4.23531 -5.65625,6.5625 -2.32719,2.30274 -3.94599,3.67766 -6.5625,5.65625 -0.788508,0.57189 -1.783248,0.68551 -2.468748,0 l -7.09375,-6.25 c -0.76064,-0.63163 -1.706492,-0.62292 -2.375,-0.25 L 87.830092,104.5 c -3.52765,2.01717 -7.328192,3.60952 -11.34375,4.6875 l 0,0.15625 c -0.7364,0.20901 -1.440032,0.85927 -1.53125,1.84375 l -0.59375,9.4375 c 0,0.96944 -0.788052,1.59681 -1.75,1.75 -3.24923,0.45108 -5.351152,0.60772 -8.625,0.625 -3.27385,-0.0173 -5.375772,-0.17392 -8.625,-0.625 -0.96195,-0.15319 -1.750002,-0.78056 -1.75,-1.75 l -0.59375,-9.4375 c -0.09122,-0.98448 -0.794852,-1.63474 -1.53125,-1.84375 l 0,-0.15625 c -4.01556,-1.07798 -7.816092,-2.67033 -11.34375,-4.6875 l -0.09375,0.0937 c -0.66851,-0.37292 -1.614362,-0.38163 -2.375,0.25 l -7.09375,6.25 c -0.6855,0.6855 -1.680232,0.57188 -2.46875,0 -2.61652,-1.97859 -4.23532,-3.35351 -6.5625,-5.65625 -2.30274,-2.32719 -3.67766,-3.94599 -5.65625,-6.5625 -0.18625,-0.256812 -0.32899,-0.529748 -0.40625,-0.8125 z"
         id="path2293"
         style="opacity:0.73234199;fill:#ffffff;fill-opacity:1;stroke:none" />
      <path
         d="m 55.234189,4.1094074 c 4.558866,-0.4362458 12.192813,-0.6029442 16.943753,-0.035746 1.905751,0.2275209 2.537988,2.8775783 2.144779,7.3637406 -0.02725,0.310949 -0.571941,-5.9606978 -2.502242,-6.041127 -4.670803,-0.1946168 -11.680294,-0.4665162 -16.228827,0 -1.04558,0.107239 -1.961535,2.192676 -1.966047,1.8588084 -0.01787,-1.3941063 -0.24615,-2.968193 1.608584,-3.1456757 z"
         id="path5211"
         style="fill:url(#linearGradient5219);fill-opacity:1;fill-rule:evenodd;stroke:none;filter:url(#filter5257)" />
      <path
         d="m 55.962085,6.8499207 a 1.2890996,2.4518168 0 1 1 -2.578199,0 1.2890996,2.4518168 0 1 1 2.578199,0 z"
         transform="matrix(0.899969,0.4359538,-0.4359538,0.899969,8.6574518,-23.80688)"
         id="path5245"
         style="fill:url(#radialGradient5253);fill-opacity:1;stroke:none" />
      <path
         d="m 55.962085,6.8499207 a 1.2890996,2.4518168 0 1 1 -2.578199,0 1.2890996,2.4518168 0 1 1 2.578199,0 z"
         transform="matrix(-0.899969,0.4359538,0.4359538,0.899969,119.08978,-23.80688)"
         id="path5261"
         style="fill:url(#radialGradient5263);fill-opacity:1;stroke:none" />
      <g
         id="g5317">
        <path
           d="m 51.361769,18.300158 c -4.047779,1.23811 -7.859062,2.709995 -11.526066,4.900041 -0.996978,0.363561 -1.596318,0.0034 -2.42654,-0.505529 l -6.875198,-6.113311 c -0.433314,-0.358221 -1.501514,-0.924638 -2.325434,-0.202212 -4.571806,3.959678 -8.215706,8.204865 -12.233807,12.334913 l 1.489849,-0.788946 c 3.57235,-3.458456 7.011649,-6.961263 10.845064,-10.332697 0.569939,-0.472074 1.422561,-0.290854 1.921011,0.202212 l 6.584146,5.80386 c 1.006037,0.983671 2.290425,1.379466 3.627544,0.916086 3.64482,-2.350169 7.47141,-3.979336 11.497506,-5.566955 0.845439,-0.348573 1.515884,-1.700121 1.402689,-2.807484 -0.117354,0.714424 -0.999363,1.846998 -1.980764,2.160022 z"
           id="path5265"
           style="fill:url(#linearGradient5273);fill-opacity:1;fill-rule:evenodd;stroke:none;filter:url(#filter5309)" />
        <path
           d="m 55.962085,6.8499207 a 1.2890996,2.4518168 0 1 1 -2.578199,0 1.2890996,2.4518168 0 1 1 2.578199,0 z"
           transform="matrix(0.2034271,1.2369315,-0.9790901,0.2569992,24.508092,-52.470535)"
           id="path5313"
           style="fill:url(#radialGradient5315);fill-opacity:1;stroke:none" />
      </g>
      <g
         transform="matrix(-1,0,0,1,128.37557,0)"
         id="g5331">
        <path
           d="m 51.361769,18.300158 c -4.047779,1.23811 -7.859062,2.709995 -11.526066,4.900041 -0.996978,0.363561 -1.167362,-0.497014 -1.997584,-1.005977 l -6.875198,-6.113311 c -0.433314,-0.358221 -1.93047,-0.42419 -2.75439,0.298236 -5.213647,3.317837 -8.713911,7.70666 -12.233807,12.334913 l 1.489849,-0.788946 c 2.483558,-2.864569 6.003973,-6.411621 10.845064,-10.332697 0.569939,-0.472074 1.851517,-0.791302 2.349967,-0.298236 l 6.584146,5.80386 c 1.006037,0.983671 1.861469,1.879914 3.198588,1.416534 3.64482,-2.350169 7.47141,-3.979336 11.497506,-5.566955 0.845439,-0.348573 1.515884,-1.700121 1.402689,-2.807484 -0.117354,0.714424 -0.999363,1.846998 -1.980764,2.160022 z"
           id="path5333"
           style="fill:url(#linearGradient5337);fill-opacity:1;fill-rule:evenodd;stroke:none;filter:url(#filter5309)" />
        <path
           d="m 55.962085,6.8499207 a 1.2890996,2.4518168 0 1 1 -2.578199,0 1.2890996,2.4518168 0 1 1 2.578199,0 z"
           transform="matrix(0.2034271,1.2369315,-0.9790901,0.2569992,24.508092,-52.470535)"
           id="path5335"
           style="fill:url(#radialGradient5339);fill-opacity:1;stroke:none" />
      </g>
      <path
         d="m 55.962085,6.8499207 a 1.2890996,2.4518168 0 1 1 -2.578199,0 1.2890996,2.4518168 0 1 1 2.578199,0 z"
         transform="matrix(-0.9946903,-0.4812292,-0.3574506,0.9612934,168.32567,49.779168)"
         id="path5341"
         style="opacity:0.31970257;fill:url(#radialGradient5343);fill-opacity:1;stroke:none;filter:url(#filter5505)" />
      <path
         d="m 55.962085,6.8499207 a 1.2890996,2.4518168 0 1 1 -2.578199,0 1.2890996,2.4518168 0 1 1 2.578199,0 z"
         transform="matrix(0.9946903,-0.4812292,0.3574506,0.9612934,-39.943898,50.082486)"
         id="path5509"
         style="opacity:0.31970257;fill:url(#radialGradient5511);fill-opacity:1;stroke:none;filter:url(#filter5505)" />
      <path
         d="m 109.72078,50.196512 c 0.18834,0.736645 -0.025,2.115067 0.47148,3.244939 0.29048,0.661018 0.6951,1.085368 1.22638,1.105152 4.78718,0.178262 6.94699,0.134513 10.11059,0.353871 0.47135,0.03268 1.05834,0.325925 1.28861,1.240743 0.41489,1.648244 0.35059,4.987561 0.78405,6.569684 0.74071,2.835371 0.2963,-4.805472 -0.0506,-7.102686 -0.28228,-1.58603 -0.97024,-2.280608 -1.8199,-2.325435 -3.37109,-0.177853 -6.74744,-0.06461 -10.4139,-0.202211 -0.25396,0.03372 -0.52901,-0.263847 -0.78145,-0.694049 -0.45009,-0.767054 -0.41721,-1.848547 -0.81531,-2.190008 z"
         id="path5513"
         style="fill:url(#linearGradient5521);fill-opacity:1;fill-rule:evenodd;stroke:none;filter:url(#filter5581)" />
      <path
         d="m 109.72078,50.196512 c 0.18834,0.736645 -0.025,2.115067 0.47148,3.244939 0.29048,0.661018 0.6951,1.085368 1.22638,1.105152 4.78718,0.178262 6.94699,0.134513 10.11059,0.353871 0.47135,0.03268 1.05834,0.325925 1.28861,1.240743 0.41489,1.648244 0.35059,4.987561 0.78405,6.569684 0.74071,2.835371 0.2963,-4.805472 -0.0506,-7.102686 -0.28228,-1.58603 -0.97024,-2.280608 -1.8199,-2.325435 -3.37109,-0.177853 -6.74744,-0.06461 -10.4139,-0.202211 -0.25396,0.03372 -0.52901,-0.263847 -0.78145,-0.694049 -0.45009,-0.767054 -0.41721,-1.848547 -0.81531,-2.190008 z"
         transform="matrix(-1,0,0,1,128.17026,0)"
         id="path5585"
         style="fill:url(#linearGradient5587);fill-opacity:1;fill-rule:evenodd;stroke:none;filter:url(#filter5581)" />
      <path
         d="m 48.310016,64.191133 c -0.0047,0.158737 -0.04717,0.311795 -0.04717,0.471676 0,8.676524 7.077434,15.70679 15.753958,15.70679 8.676524,0 15.706795,-7.030263 15.70679,-15.70679 0,-0.159881 -0.04242,-0.312939 -0.04717,-0.471676 -0.228367,8.47772 -7.127084,15.282283 -15.659622,15.282283 -8.53254,0 -15.478418,-6.804563 -15.70679,-15.282283 z"
         id="path5589"
         style="opacity:0.87360595;fill:url(#linearGradient3814);fill-opacity:1;stroke:none;filter:url(#filter5876)" />
      <path
         d="m 79.676428,63.990452 c 0.0047,-0.158737 0.04717,-0.311795 0.04717,-0.471676 0,-8.676524 -7.077434,-15.70679 -15.753958,-15.70679 -8.676524,0 -15.706795,7.030263 -15.70679,15.70679 0,0.159881 0.04242,0.312939 0.04717,0.471676 0.228367,-8.47772 7.127084,-15.282283 15.659622,-15.282283 8.53254,0 15.478418,6.804563 15.70679,15.282283 z"
         id="path5596"
         style="opacity:0.87360595;fill:#565656;fill-opacity:1;stroke:none;filter:url(#filter5718)" />
      <path
         d="m 80.264493,64.297087 c 0.0049,-0.164689 0.04894,-0.323486 0.04894,-0.489362 0,-9.001863 -7.342812,-16.295739 -16.344675,-16.295739 -9.001863,0 -16.295744,7.293873 -16.295739,16.295739 0,0.165876 0.04401,0.324673 0.04894,0.489362 0.23693,-8.795604 7.394325,-16.270313 16.246803,-16.270313 8.85248,0 16.058803,7.474709 16.295739,16.270313 z"
         id="path5722"
         style="opacity:0.87360595;fill:#ffffff;fill-opacity:1;stroke:none;filter:url(#filter5836)" />
      <path
         d="m 48.310016,64.191133 c -0.0047,0.158737 -0.04717,0.311795 -0.04717,0.471676 0,8.676524 7.077434,16.70679 15.753958,16.70679 8.676524,0 15.706795,-8.030263 15.70679,-16.70679 0,-0.159881 -0.04242,-0.312939 -0.04717,-0.471676 -0.228367,8.47772 -7.127084,15.282283 -15.659622,15.282283 -8.53254,0 -15.478418,-6.804563 -15.70679,-15.282283 z"
         id="path5888"
         style="opacity:0.34572491;fill:url(#linearGradient5886);fill-opacity:1;stroke:none;filter:url(#filter5876)" />
      <path
         d="m 108.31492,97.901599 c 0.0523,0.557603 -0.12652,1.038158 -0.35746,1.501345 l -3.36016,4.361056 3.07419,-4.361056 c -0.13497,-0.516373 -0.19007,-1.07268 -0.50045,-1.501345 -1.78571,-2.200652 -4.06047,-4.319796 -5.07598,-6.648813 l 6.21986,6.648813 z"
         id="path5890"
         style="fill:#ffffff;fill-opacity:1;fill-rule:evenodd;stroke:none;filter:url(#filter5960)" />
      <path
         d="m 112.31492,97.901603 c 0.0523,0.557603 -0.12652,1.038158 -0.35746,1.501345 l -3.36016,4.361052 3.07419,-4.361052 c -0.13497,-0.516373 -0.19007,-1.072681 -0.50045,-1.501345 -1.78571,-2.200652 -4.06047,-4.319796 -5.07598,-6.648814 l 6.21986,6.648814 z"
         transform="matrix(-1,0,0,1,128.41914,0)"
         id="path5964"
         style="fill:#ffffff;fill-opacity:1;fill-rule:evenodd;stroke:none;filter:url(#filter5960)" />
      <path
         d="m 366.04225,108.83997 a 55.192307,55.192307 0 1 1 -110.38461,0 55.192307,55.192307 0 1 1 110.38461,0 z"
         transform="matrix(0.5892134,0,0,0.5892134,-119.15695,-0.1299716)"
         id="path3300"
         style="fill:none;stroke:url(#linearGradient3302);stroke-width:1.69717801;stroke-linecap:round;stroke-linejoin:round;stroke-miterlimit:4;stroke-opacity:1;stroke-dasharray:none;stroke-dashoffset:1.08779998;filter:url(#filter3310)" />
      <path
         d="M 64,31.46875 C 46.048934,31.46875 31.468751,46.048934 31.46875,64 31.46875,81.951066 46.048937,96.531253 64,96.53125 81.951066,96.53125 96.53125,81.951065 96.53125,64 96.53125,46.048934 81.951069,31.468751 64,31.46875 z m 0,17.9375 c 8.050642,0 14.59375,6.543108 14.59375,14.59375 0,8.050642 -6.543108,14.59375 -14.59375,14.59375 -8.050642,0 -14.59375,-6.543108 -14.59375,-14.59375 0,-8.050642 6.543108,-14.59375 14.59375,-14.59375 z"
         id="path3326"
         style="fill:#343434;fill-opacity:0.07755103;stroke:none;filter:url(#filter3310)" />
      <g
         transform="matrix(0.5714286,0,0,0.5714286,139.42857,61.714286)"
         id="g3174">
        <g
           transform="translate(-140,0)"
           id="g4834">
          <g
             transform="translate(8.0000085,20)"
             id="g4493"
             style="opacity:0.6;fill:#000000;fill-opacity:1;filter:url(#filter3542)">
            <radialGradient
               cx="52"
               cy="-31"
               r="136.00369"
               id="radialGradient4495"
               gradientUnits="userSpaceOnUse">
              <stop
                 id="stop4497"
                 style="stop-color:#bbbbbb;stop-opacity:1"
                 offset="0" />
              <stop
                 id="stop4499"
                 style="stop-color:#eeeeee;stop-opacity:1"
                 offset="0.30770001" />
              <stop
                 id="stop4501"
                 style="stop-color:#bbbbbb;stop-opacity:1"
                 offset="0.78109998" />
              <stop
                 id="stop4503"
                 style="stop-color:#dbdbdb;stop-opacity:1"
                 offset="1" />
            </radialGradient>
            <path
               d="m -3.9999997,-6.2999997e-6 c -1.6499999,0 -2.9999999,1.3499999999997 -2.9999999,2.9999998999997 l 0,90.0000004 c 0,1.65 1.35,3 2.9999999,3 l 105.9999997,0 c 1.65,0 3,-1.35 3,-3 L 105,2.9999936 C 105,1.3499937 103.65,-6.2999997e-6 102,-6.2999997e-6 l -105.9999997,0 z"
               id="path4505"
               style="fill:#000000;fill-opacity:1" />
          </g>
          <path
             d="m 4.0000004,10.999993 c -1.65,0 -3,1.427343 -3,3.171875 l 0,95.156232 c 0,1.74454 1.35,3.17188 3,3.17188 l 105.9999996,0 c 1.65,0 3,-1.42734 3,-3.17188 l 0,-95.156232 c 0,-1.744532 -1.35,-3.171875 -3,-3.171875 l -105.9999996,0 z"
             id="path19"
             style="fill:url(#linearGradient4269);fill-opacity:1" />
          <path
             d="m 5.6562514,12.749989 c -1.598436,0 -2.906249,1.378124 -2.906249,3.062499 l 0,91.874982 c 0,1.68438 1.307813,3.06251 2.906249,3.06251 l 102.6875086,0 c 1.59842,0 2.90624,-1.37813 2.90624,-3.06251 l 0,-91.874982 c 0,-1.684375 -1.30782,-3.062499 -2.90624,-3.062499 l -102.6875086,0 z"
             id="path9762"
             style="fill:url(#linearGradient4271);fill-opacity:1" />
          <rect
             width="111.99999"
             height="70"
             x="1.0000097"
             y="24.999989"
             id="rect30" />
          <g
             transform="matrix(1.1886793,0,0,0.95,-11.481134,18.200005)"
             id="g32">
            <linearGradient
               x1="55.9995"
               y1="7"
               x2="55.9995"
               y2="83"
               id="linearGradient3040"
               gradientUnits="userSpaceOnUse">
              <stop
                 id="stop3042"
                 style="stop-color:#555753;stop-opacity:1"
                 offset="0" />
              <stop
                 id="stop3044"
                 style="stop-color:#2e2e2e;stop-opacity:1"
                 offset="0.62720001" />
              <stop
                 id="stop3046"
                 style="stop-color:#2e2e2e;stop-opacity:1"
                 offset="1" />
            </linearGradient>
            <path
               d="m 103.25,76 c 0,1.65 -1.33204,3 -2.9601,3 l -86.829785,0 c -1.628058,0 -2.960106,-1.35 -2.960106,-3 l 0,-64 c 0,-1.65 1.332048,-3 2.960106,-3 L 100.2899,9 c 1.62806,0 2.9601,1.35 2.9601,3 l 0,64 z"
               id="path41"
               style="fill:url(#linearGradient4273)" />
          </g>
          <path
             d="M 1.0000095,60.769994 C 47.012942,38.546994 91.28511,33.384994 113,32.254994 l 0,-7.255 -111.9999905,0 0,35.77 z"
             id="path43"
             style="opacity:0.1;fill:#ffffff" />
          <path
             d="m 43.000007,52.99999 -27.999999,14 0,-7.504 18.667249,-9.996 -18.667249,-9.995998 0,-7.504 27.999999,14.518 0,6.481998 z"
             id="path50"
             style="opacity:0.9;fill:url(#linearGradient4275)" />
          <path
             d="m 64.000006,73.999994 -20.999999,0 0,-7 20.999999,0 0,7 z"
             id="path57"
             style="opacity:0.9;fill:url(#linearGradient4277)" />
        </g>
      </g>
    </g>
  </g>
</svg>
